<svg width="34" height="34" viewBox="0 0 34 34" fill="none" xmlns="http://www.w3.org/2000/svg">
    <path d="M16.2029 32.838C14.9428 32.741 12.2571 30.9498 11.3975 29.0785L24.7737 17.1707C26.9633 18.1663 32.4931 19.3255 32.5911 19.6295C32.7136 20.0095 32.7705 23.0962 31.7679 24.4294C30.7653 25.7626 29.4334 26.5632 27.8532 28.2268C26.3389 29.8211 26.332 30.4299 24.7622 31.6199C23.6278 32.4798 21.3408 31.8615 20.1543 31.9457C18.8233 32.0401 17.4455 32.9336 16.2029 32.838Z" fill="#990B58"/>
    <path d="M25.9524 28.1992C24.1678 29.1552 21.1722 29.0596 18.5592 28.8365L16.8057 24.0714L15.8368 11.2047C17.7446 8.4706 18.2051 3.06641 18.846 2.99204C24.6141 2.32282 25.9769 3.09256 27.1938 4.08404C28.4106 5.07553 28.1647 6.15812 29.0435 7.26227C29.9223 8.36642 31.5189 8.50635 32.3314 9.9428C33.1225 11.3413 32.5457 12.8391 32.9173 14.2242C33.2468 15.4522 34.1349 17.3643 33.3456 19.6268C32.5563 21.8894 30.8239 21.5601 29.357 23.1475C27.9281 24.6937 27.7369 27.2431 25.9524 28.1992Z" fill="#B20E68"/>
    <path d="M29.9687 17.8422C29.6247 21.7402 25.6347 22.3993 24.8698 23.8333C18.0196 20.9189 8.92512 21.6125 8.74485 21.252C8.51952 20.8013 4.4905 18.7069 5.14397 17.3323C5.79744 15.9577 3.99664 11.1971 3.9966 10.3533C3.99644 6.91166 5.63824 3.77685 6.833 2.89637C8.04376 2.0041 9.47465 2.88368 10.9119 2.32279C12.2185 1.81291 13.3339 0.959281 15.0228 0.793151C16.9667 0.601947 18.0876 1.71731 19.1019 1.71731C20.0898 1.71731 21.7271 1.07644 23.1172 1.97225C24.5512 2.89637 24.6081 4.28404 25.2841 5.09525C25.9602 5.90647 27.8973 6.17875 28.5346 7.93145C29.172 9.68416 28.5346 10.927 28.7896 12.8072C29.0311 14.5882 30.1039 16.3099 29.9687 17.8422Z" fill="#DB117F"/>
    <path d="M12.3771 31.5443C12.9189 31.7992 14.6397 31.8629 14.7672 31.5443C16.9529 31.8373 18.3795 31.2896 19.754 30.4108C21.1286 29.532 21.5229 28.1599 22.6158 27.2786C23.6094 26.4774 25.1973 26.3671 26.1453 24.8056C27.197 23.0735 26.1493 21.5961 26.6217 19.1479C26.8696 17.8634 27.675 16.474 27.3563 15.0223C26.8736 12.8234 25.6722 12.9998 24.0723 10.5437C22.4724 8.08749 23.0844 6.87891 21.2999 5.60421C19.2476 4.13831 17.1252 5.34927 14.8945 5.1262C12.6519 4.90194 11.6122 3.50096 9.79588 4.07457C7.97959 4.64819 7.61593 6.20609 6.35405 7.19758C5.09216 8.18906 3.15793 7.96347 2.21142 9.52387C1.03225 11.4678 -0.656682 17.65 1.2235 23.0994C2.63838 27.2001 6.35411 31.5443 12.3771 31.5443Z" fill="#FF1494"/>
    <mask id="mask0_984_65745" style="mask-type:alpha" maskUnits="userSpaceOnUse" x="0" y="3" width="28" height="29">
        <path d="M12.3771 31.5443C12.9189 31.7992 14.6397 31.8629 14.7672 31.5442C16.9529 31.8372 18.3795 31.2896 19.754 30.4108C21.1286 29.532 21.5229 28.1599 22.6158 27.2786C23.6094 26.4774 24.931 26.6369 26.0816 24.7419C27.3392 22.6705 26.1493 21.5961 26.6217 19.1479C26.8696 17.8634 27.6843 16.7113 27.2926 14.9267C26.733 12.3773 25.6722 12.9998 24.0723 10.5437C22.4724 8.08749 23.0844 6.87891 21.2999 5.60421C19.2476 4.13831 17.1252 5.34927 14.8945 5.1262C12.6519 4.90194 11.6122 3.50096 9.79588 4.07457C7.97959 4.64819 7.61593 6.20609 6.35405 7.19758C5.09216 8.18906 3.15793 7.96347 2.21142 9.52387C1.03225 11.4678 -0.656682 17.65 1.2235 23.0994C2.63838 27.2001 6.35411 31.5443 12.3771 31.5443Z" fill="#FF1494"/>
    </mask>
    <g mask="url(#mask0_984_65745)">
        <path d="M5.58748 30.5148C5.2773 30.2969 4.6907 29.2886 4.82006 29.077C3.96168 27.8862 3.7963 26.796 3.82455 25.5967C3.85281 24.3975 4.45935 23.5791 4.5794 22.5482C4.68855 21.6111 3.82736 20.6999 4.47057 19.2049C5.17364 17.5709 6.4814 18.0153 7.63795 16.6939C8.24471 16.0007 8.39035 14.8344 9.46975 14.3141C11.0118 13.5708 11.2281 14.6606 13.0543 14.5826C14.8805 14.5046 15.3298 13.6244 16.584 14.158C18.0263 14.7716 18.0607 16.5614 18.8961 17.8089C19.736 19.0631 20.8185 19.0951 21.0952 20.4307C21.3718 21.7664 20.6561 22.6451 20.5315 23.8243C20.4068 25.0034 21.1484 26.0715 20.6185 27.3019C19.9584 28.8348 17.1971 32.4698 13.6814 33.6472C11.0358 34.5332 7.52138 34.1382 5.58748 30.5148Z" fill="#FF3DA7"/>
        <path fill-rule="evenodd" clip-rule="evenodd" d="M8.20326 10.3622C8.54644 12.678 8.96182 15.0465 11.0254 16.2365C11.8722 13.7237 13.3763 11.2844 15.7715 9.11987C12.6515 13.5324 11.5097 17.5347 11.6213 21.2872C15.2266 21.4616 17.5446 18.7385 19.727 16.0288C17.2097 21.2746 14.1762 22.4212 11.6954 22.4443C11.846 23.9794 12.1992 25.4745 12.7032 26.9409C16.2837 27.8455 19.2278 25.6178 22.034 23.3737C18.6616 27.669 15.6123 28.498 13.1881 28.2334C13.73 29.5686 14.3869 30.8824 15.1184 32.1837L12.8238 32.4068C11.9678 30.7995 11.2058 28.8684 10.7126 26.7637C8.17831 26.1779 5.32688 24.3203 3.96415 18.3587C5.48008 21.4546 7.1174 24.591 10.4479 25.4675C9.97946 22.775 9.97996 19.8618 10.7843 17.0157C9.30019 16.1424 7.86501 14.4038 8.20326 10.3622Z" fill="white"/>
    </g>
</svg>
